<svg xmlns="http://www.w3.org/2000/svg" width="80" height="80"><defs><radialGradient id="b" cx="87.4%" cy="-12.9%" r="128%" gradientTransform="matrix(.8 0 0 1 .18 .13)"><stop offset=".13" stop-color="#ffbd4f"/><stop offset=".28" stop-color="#ff980e"/><stop offset=".47" stop-color="#ff3750"/><stop offset=".78" stop-color="#eb0878"/><stop offset=".86" stop-color="#e50080"/></radialGradient><radialGradient id="c" cx="49%" cy="40%" r="128%" gradientTransform="matrix(.82 0 0 1 .09 0)"><stop offset=".3" stop-color="#960e18"/><stop offset=".35" stop-color="#b11927" stop-opacity=".74"/><stop offset=".43" stop-color="#db293d" stop-opacity=".34"/><stop offset=".5" stop-color="#f5334b" stop-opacity=".09"/><stop offset=".53" stop-color="#ff3750" stop-opacity="0"/></radialGradient><radialGradient id="d" cx="48%" cy="-12%" r="140%"><stop offset=".13" stop-color="#fff44f"/><stop offset=".53" stop-color="#ff980e"/></radialGradient><radialGradient id="e" cx="22.76%" cy="110.11%" r="100%"><stop offset=".35" stop-color="#3a8ee6"/><stop offset=".67" stop-color="#9059ff"/><stop offset="1" stop-color="#c139e6"/></radialGradient><radialGradient id="f" cx="52%" cy="33%" r="59%" gradientTransform="scale(.9 1)"><stop offset=".21" stop-color="#9059ff" stop-opacity="0"/><stop offset=".97" stop-color="#6e008b" stop-opacity=".6"/></radialGradient><radialGradient id="g" cx="210%" cy="-100%" r="290%"><stop offset=".1" stop-color="#ffe226"/><stop offset=".79" stop-color="#ff7139"/></radialGradient><radialGradient id="h" cx="84%" cy="-41%" r="180%"><stop offset=".11" stop-color="#fff44f"/><stop offset=".46" stop-color="#ff980e"/><stop offset=".72" stop-color="#ff3647"/><stop offset=".9" stop-color="#e31587"/></radialGradient><radialGradient id="i" cx="16.1%" cy="-18.6%" r="348.8%" gradientTransform="scale(1 .47) rotate(84 .28 -.3)"><stop offset="0" stop-color="#fff44f"/><stop offset=".3" stop-color="#ff980e"/><stop offset=".57" stop-color="#ff3647"/><stop offset=".74" stop-color="#e31587"/></radialGradient><radialGradient id="j" cx="18.9%" cy="-42.5%" r="238.4%"><stop offset=".14" stop-color="#fff44f"/><stop offset=".48" stop-color="#ff980e"/><stop offset=".66" stop-color="#ff3647"/><stop offset=".9" stop-color="#e31587"/></radialGradient><radialGradient id="k" cx="159.3%" cy="-44.72%" r="313.1%"><stop offset=".09" stop-color="#fff44f"/><stop offset=".63" stop-color="#ff980e"/></radialGradient><linearGradient id="a" x1="87.25%" x2="9.4%" y1="15.5%" y2="93.1%"><stop offset=".05" stop-color="#fff44f"/><stop offset=".37" stop-color="#ff980e"/><stop offset=".53" stop-color="#ff3647"/><stop offset=".7" stop-color="#e31587"/></linearGradient><linearGradient id="l" x1="80%" x2="18%" y1="14%" y2="84%"><stop offset=".17" stop-color="#fff44f" stop-opacity=".8"/><stop offset=".6" stop-color="#fff44f" stop-opacity="0"/></linearGradient></defs><path fill="url(#a)" d="M75.92 26.83c-1.69-4.05-5.1-8.43-7.78-9.8a40.27 40.27 0 013.93 11.75v.07C67.7 17.92 60.26 13.52 54.2 3.93a47.1 47.1 0 01-.91-1.49 12.24 12.24 0 01-.43-.8 7.05 7.05 0 01-.58-1.53.1.1 0 00-.08-.1.14.14 0 00-.08 0l-.02.01-.02.02.01-.03c-9.73 5.7-13.04 16.25-13.34 21.53a19.39 19.39 0 00-10.67 4.11 11.59 11.59 0 00-1-.76 17.97 17.97 0 01-.1-9.47 28.7 28.7 0 00-9.34 7.2h-.01c-1.54-1.94-1.43-8.36-1.34-9.7a6.93 6.93 0 00-1.3.69 28.23 28.23 0 00-3.79 3.24 33.84 33.84 0 00-3.62 4.35 32.73 32.73 0 00-5.2 11.74l-.05.26a61.89 61.89 0 00-.38 2.42l-.01.08a36.94 36.94 0 00-.63 5.35v.2a38.76 38.76 0 0076.95 6.55l.18-1.5a39.86 39.86 0 00-2.51-19.47zM31.25 57.17l.53.26.03.02-.56-.28zm8.87-23.38zm31.96-4.93v-.04.04z"/><path fill="url(#b)" d="M75.92 26.83c-1.69-4.05-5.1-8.43-7.78-9.8a40.27 40.27 0 013.93 11.75v.08a35.1 35.1 0 01-1.2 26.16c-4.45 9.53-15.2 19.3-32.03 18.83-18.18-.52-34.2-14.01-37.2-31.69-.54-2.78 0-4.2.28-6.46a28.88 28.88 0 00-.62 5.35v.2a38.76 38.76 0 0076.95 6.55l.18-1.5a39.86 39.86 0 00-2.51-19.47z"/><path fill="url(#c)" d="M75.92 26.83c-1.69-4.05-5.1-8.43-7.78-9.8a40.27 40.27 0 013.93 11.75v.08a35.1 35.1 0 01-1.2 26.16c-4.45 9.53-15.2 19.3-32.03 18.83-18.18-.52-34.2-14.01-37.2-31.69-.54-2.78 0-4.2.28-6.46a28.88 28.88 0 00-.62 5.35v.2a38.76 38.76 0 0076.95 6.55l.18-1.5a39.86 39.86 0 00-2.51-19.47z"/><path fill="url(#d)" d="M57.08 31.39l.24.17a21.1 21.1 0 00-3.6-4.7C41.68 14.83 50.57.76 52.06.04l.02-.02c-9.73 5.7-13.04 16.25-13.34 21.53.45-.03.9-.07 1.36-.07a19.56 19.56 0 0116.98 9.92z"/><path fill="url(#e)" d="M40.13 33.8c-.07.96-3.48 4.28-4.67 4.28-11.02 0-12.8 6.67-12.8 6.67.48 5.61 4.4 10.24 9.12 12.68a13.44 13.44 0 00.66.32q.57.25 1.13.46a17.23 17.23 0 005.05.97c19.31.91 23.06-23.1 9.12-30.06a13.38 13.38 0 019.34 2.27 19.56 19.56 0 00-16.98-9.92c-.46 0-.91.04-1.36.07a19.39 19.39 0 00-10.67 4.11c.6.5 1.26 1.17 2.66 2.55 2.63 2.6 9.38 5.28 9.4 5.6z"/><path fill="url(#f)" d="M40.13 33.8c-.07.96-3.48 4.28-4.67 4.28-11.02 0-12.8 6.67-12.8 6.67.48 5.61 4.4 10.24 9.12 12.68a13.44 13.44 0 00.66.32q.57.25 1.13.46a17.23 17.23 0 005.05.97c19.31.91 23.06-23.1 9.12-30.06a13.38 13.38 0 019.34 2.27 19.56 19.56 0 00-16.98-9.92c-.46 0-.91.04-1.36.07a19.39 19.39 0 00-10.67 4.11c.6.5 1.26 1.17 2.66 2.55 2.63 2.6 9.38 5.28 9.4 5.6z"/><path fill="url(#g)" d="M26.27 24.36a24.87 24.87 0 01.8.53 17.97 17.97 0 01-.11-9.47 28.7 28.7 0 00-9.33 7.2c.19 0 5.8-.1 8.63 1.74z"/><path fill="url(#h)" d="M1.65 42.16c3 17.68 19.01 31.17 37.2 31.69 16.83.47 27.58-9.3 32.02-18.83a35.1 35.1 0 001.2-26.16v-.03-.04l.02.06c1.37 8.98-3.2 17.68-10.33 23.56l-.03.05c-13.9 11.33-27.21 6.83-29.9 5l-.57-.28C23.15 53.3 19.8 45.9 20.52 39.58a9.95 9.95 0 01-9.18-5.78 14.62 14.62 0 0114.25-.57 19.3 19.3 0 0014.55.57c-.02-.31-6.76-3-9.4-5.59-1.4-1.38-2.06-2.05-2.66-2.55a11.59 11.59 0 00-1-.76 54.24 54.24 0 00-.8-.53c-2.82-1.84-8.44-1.74-8.63-1.73h-.02c-1.53-1.95-1.43-8.37-1.34-9.7a6.93 6.93 0 00-1.3.68 28.23 28.23 0 00-3.78 3.24 33.84 33.84 0 00-3.64 4.34 32.73 32.73 0 00-5.2 11.74c-.02.08-1.4 6.1-.72 9.22z"/><path fill="url(#i)" d="M53.73 26.87a21.1 21.1 0 013.6 4.7 8.08 8.08 0 01.58.47c8.78 8.1 4.18 19.56 3.84 20.37 7.13-5.88 11.7-14.58 10.33-23.55-4.39-10.93-11.82-15.34-17.89-24.93a47.1 47.1 0 01-.91-1.49 12.24 12.24 0 01-.43-.8 7.05 7.05 0 01-.58-1.53.1.1 0 00-.08-.1.14.14 0 00-.08 0l-.02.01-.02.02c-1.5.7-10.4 14.78 1.66 26.83z"/><path fill="url(#j)" d="M57.9 32.04a8.08 8.08 0 00-.58-.48l-.24-.17a13.38 13.38 0 00-9.35-2.27c13.94 6.97 10.2 30.97-9.12 30.06a17.23 17.23 0 01-5.04-.97q-.57-.21-1.14-.47a14.44 14.44 0 01-.65-.3l.03.01c2.69 1.84 16 6.33 29.9-5l.03-.05c.35-.81 4.95-12.26-3.84-20.36z"/><path fill="url(#k)" d="M22.65 44.75s1.8-6.67 12.81-6.67c1.2 0 4.6-3.32 4.66-4.29a19.3 19.3 0 01-14.55-.57 14.62 14.62 0 00-14.25.57 9.95 9.95 0 009.18 5.78c-.71 6.33 2.64 13.72 10.75 17.6l.53.26c-4.73-2.44-8.64-7.07-9.13-12.68z"/><path fill="url(#l)" d="M75.92 26.83c-1.69-4.05-5.1-8.43-7.78-9.8a40.27 40.27 0 013.93 11.75v.07C67.7 17.92 60.26 13.52 54.2 3.93a47.1 47.1 0 01-.91-1.49 12.24 12.24 0 01-.43-.8 7.05 7.05 0 01-.58-1.53.1.1 0 00-.08-.1.14.14 0 00-.08 0l-.02.01-.02.02.01-.03c-9.73 5.7-13.04 16.25-13.34 21.53.45-.03.9-.07 1.36-.07a19.56 19.56 0 0116.98 9.92 13.38 13.38 0 00-9.34-2.27c13.94 6.97 10.2 30.97-9.12 30.06a17.23 17.23 0 01-5.04-.97q-.57-.21-1.14-.47a14.44 14.44 0 01-.66-.3l.03.01-.56-.28.53.26c-4.73-2.44-8.64-7.07-9.13-12.68 0 0 1.8-6.67 12.81-6.67 1.2 0 4.6-3.32 4.67-4.29-.02-.31-6.76-3-9.4-5.59-1.4-1.38-2.07-2.05-2.66-2.55a11.59 11.59 0 00-1-.76 17.97 17.97 0 01-.1-9.47 28.7 28.7 0 00-9.34 7.2h-.01c-1.54-1.94-1.43-8.36-1.34-9.7a6.93 6.93 0 00-1.3.69 28.23 28.23 0 00-3.79 3.24 33.84 33.84 0 00-3.62 4.35 32.73 32.73 0 00-5.2 11.74l-.05.26c-.07.34-.4 2.07-.45 2.44 0 .03 0-.03 0 0a45.1 45.1 0 00-.57 5.4v.2a38.76 38.76 0 0076.95 6.56l.18-1.5a39.86 39.86 0 00-2.51-19.47zm-3.85 2v.03z"/></svg>